<?xml version="1.0" standalone="no"?>
<!DOCTYPE svg PUBLIC "-//W3C//DTD SVG 20010904//EN"
 "http://www.w3.org/TR/2001/REC-SVG-20010904/DTD/svg10.dtd">
<svg version="1.0" xmlns="http://www.w3.org/2000/svg"
 width="1200.000000pt" height="770.000000pt" viewBox="0 0 1200.000000 770.000000"
 preserveAspectRatio="xMidYMid meet">

<g transform="translate(0.000000,770.000000) scale(0.100000,-0.100000)"
fill="#000000" stroke="none">
<path d="M6130 5938 c0 -315 4 -578 8 -583 16 -22 182 -121 182 -109 0 4 10
-2 23 -13 12 -12 45 -33 72 -47 28 -15 79 -45 114 -67 34 -21 67 -39 71 -39 5
0 10 -3 12 -7 2 -5 19 -16 38 -27 75 -39 145 -79 150 -85 3 -3 22 -15 43 -25
20 -11 37 -23 37 -28 0 -4 8 -8 19 -8 10 0 29 -8 42 -17 24 -18 35 -24 118
-71 25 -14 61 -34 79 -44 18 -10 40 -18 49 -18 9 0 13 -3 10 -6 -6 -7 56 -46
183 -116 30 -17 57 -34 60 -37 3 -3 28 -17 55 -31 28 -14 63 -34 79 -45 17
-10 44 -26 60 -35 17 -9 49 -27 71 -40 22 -12 60 -34 85 -48 25 -13 52 -30 60
-36 8 -7 31 -20 50 -29 19 -9 49 -26 65 -37 17 -11 40 -24 53 -30 12 -5 46
-25 75 -43 28 -18 58 -37 65 -41 9 -5 12 4 12 34 0 30 -3 39 -12 34 -10 -6
-10 -4 0 7 9 10 12 133 12 545 l0 531 -40 27 c-23 15 -51 31 -63 36 -24 11
-59 32 -67 40 -3 3 -31 19 -63 35 -32 17 -70 40 -83 53 -14 12 -31 22 -38 22
-6 0 -16 4 -22 9 -5 5 -40 26 -79 46 -38 21 -82 46 -97 56 -14 11 -29 19 -33
19 -4 0 -40 20 -79 45 -40 25 -78 45 -84 45 -7 0 -12 5 -12 10 0 6 -6 10 -14
10 -8 0 -21 6 -28 13 -7 6 -30 21 -51 31 -20 11 -37 23 -37 28 0 4 -5 8 -11 8
-5 0 -77 38 -160 85 -82 47 -150 85 -152 85 -4 0 -219 127 -232 137 -5 5 -39
24 -75 42 -36 19 -67 37 -70 41 -3 4 -20 14 -37 23 -18 9 -48 25 -65 34 -18 9
-35 19 -38 22 -3 3 -18 13 -35 21 -16 8 -46 26 -65 41 -19 14 -46 30 -60 34
-14 4 -43 20 -65 35 -22 15 -50 32 -62 39 l-23 12 0 -573z m594 -904 c3 -8 2
-12 -4 -9 -6 3 -10 10 -10 16 0 14 7 11 14 -7z m281 -154 c3 -5 1 -10 -4 -10
-6 0 -11 5 -11 10 0 6 2 10 4 10 3 0 8 -4 11 -10z"/>
<path d="M2040 4745 l0 -581 118 -69 c64 -39 123 -69 129 -69 7 1 11 -1 9 -5
-3 -4 20 -19 50 -35 30 -16 54 -32 54 -37 0 -5 5 -9 11 -9 9 0 57 -26 149 -80
13 -7 158 -90 245 -140 17 -9 56 -32 88 -51 79 -45 139 -79 144 -79 1 0 3 260
3 578 l0 578 -32 17 c-18 10 -55 31 -83 47 -27 17 -65 37 -83 47 -19 9 -36 22
-39 30 -3 7 -13 13 -22 13 -9 0 -21 4 -26 9 -6 5 -41 26 -80 46 -38 21 -82 46
-97 56 -14 11 -29 19 -33 19 -4 0 -46 24 -94 54 -47 29 -96 56 -109 60 -12 4
-22 11 -22 16 0 4 -10 10 -23 14 -12 3 -31 13 -43 23 -11 10 -49 33 -84 52
-36 19 -72 40 -81 48 -9 7 -19 10 -23 6 -4 -4 -11 -1 -16 7 -6 9 -10 -203 -10
-565z"/>
<path d="M5080 4722 c0 -8 -6 -12 -12 -9 -7 2 -26 -5 -43 -18 -16 -12 -55 -35
-85 -51 -30 -16 -57 -31 -60 -34 -10 -10 -50 -30 -60 -30 -6 0 -23 -11 -38
-25 -15 -14 -35 -25 -44 -25 -10 0 -18 -4 -18 -9 0 -5 -10 -13 -22 -17 -13 -4
-42 -20 -65 -35 -23 -16 -45 -29 -49 -29 -4 0 -22 -11 -40 -25 -18 -14 -38
-25 -44 -25 -6 0 -16 -5 -23 -10 -30 -26 -201 -120 -218 -120 -10 0 -19 -6
-19 -14 0 -7 -8 -17 -17 -20 -20 -7 -85 -43 -120 -66 l-23 -15 0 -1765 0
-1765 27 -12 c15 -7 33 -13 41 -13 7 0 10 -4 7 -10 -3 -5 -2 -10 4 -10 5 0 45
-22 88 -48 43 -26 95 -56 116 -67 20 -11 37 -23 37 -27 0 -5 4 -8 10 -8 8 0
79 -38 165 -89 36 -22 111 -64 185 -104 30 -17 57 -33 60 -37 3 -3 12 -9 20
-13 8 -3 38 -20 65 -37 28 -16 60 -34 73 -40 12 -5 39 -21 60 -35 42 -29 57
-32 48 -10 -3 8 -2 15 2 15 4 0 6 519 4 1154 -2 1021 -1 1155 13 1166 12 10
15 10 15 -4 0 -9 8 -16 19 -16 11 0 23 -5 27 -11 3 -6 21 -18 38 -26 45 -21
73 -38 93 -55 10 -9 35 -21 55 -27 20 -7 42 -19 48 -27 7 -7 19 -14 26 -14 8
0 14 -7 14 -15 0 -8 6 -15 13 -15 18 0 67 -24 67 -32 0 -5 4 -8 9 -8 5 0 38
-16 73 -36 34 -20 81 -46 103 -59 67 -37 119 -67 145 -84 41 -26 63 -39 108
-61 23 -12 42 -26 42 -31 0 -5 7 -9 15 -9 17 0 52 -18 73 -38 14 -13 34 -13
33 1 -1 4 -1 265 -1 581 l0 574 -25 6 c-14 4 -49 21 -78 39 -84 52 -90 55
-132 78 -22 11 -42 24 -45 28 -3 3 -31 19 -63 35 -33 16 -64 34 -70 40 -7 6
-42 26 -79 45 -38 19 -68 37 -68 41 0 4 -15 13 -32 21 -18 7 -45 21 -60 31
-16 11 -28 16 -28 12 0 -4 -10 2 -22 13 -13 11 -45 32 -73 48 -224 124 -257
146 -252 167 3 10 2 20 -1 22 -4 2 -5 252 -2 556 3 304 2 557 -2 563 -6 9 -8
8 -8 -1z"/>
</g>
</svg>
